# xmcd CD database file
#
# Track frame offsets:
#	183
#	19893
#	38785
#	54073
#	81013
#	99230
#	118523
#	137870
#	140258
#	156315
#	161480
#	185773
#	189690
#	215790
#	225235
#	252835
#
# Disc length: 3477 seconds
#
# Revision: 9
# Processed by: cddbd v1.5.1PL2 Copyright (c) Steve Scherf et al.
# Submitted via: CDex 1.51
#
DISCID=d30d9310
DTITLE=Chorus and Orchestra of Collegium Vocale - Herreweghe - Bach Cantatas
DYEAR=199
DGENRE=Choral
TTITLE0=Aus der Tiefen rufe ich -I- Aus der Tiefen rufe ich
TTITLE1=Aus der Tiefen rufe ich -II- So du willst, Herr Sünde zurechnen
TTITLE2=Aus der Tiefen rufe ich -III- Ich harre des Herrn
TTITLE3=Aus der Tiefen rufe ich -IV- Seele wartet auf den Herrn
TTITLE4=Aus der Tiefen rufe ich -V- Israel, hoffe auf dem Herrn
TTITLE5=Herr, wie du willt, so schicks mit mir -I- Herr, wie du willt, so schicks mit mir
TTITLE6=Herr, wie du willt, so schicks mit mir -II- Ach, senke doch den Geist der Freuden 
TTITLE7=Herr, wie du willt, so schicks mit mir -III- Ach, unser Wille bleibt verkehrt
TTITLE8=Herr, wie du willt, so schicks mit mir -IV- Herr, so du willt
TTITLE9=Herr, wie du willt, so schicks mit mir -V- Das ist der Vaters Wille
TTITLE10=Herr gehe nicht ins Gericht mit deinem Knecht -I- Herr gehe nicht ins Gericht mit deinem Knecht
TTITLE11=Herr gehe nicht ins Gericht mit deinem Knecht -II- Mein Gott, verwirf mich nicht
TTITLE12=Herr gehe nicht ins Gericht mit deinem Knecht -III- Wie zittern und wanken
TTITLE13=Herr gehe nicht ins Gericht mit deinem Knecht -IV- Wohl aber dem, der seinen Bürgern weiss
TTITLE14=Herr gehe nicht ins Gericht mit deinem Knecht -V- Kann ich nur Jesum mir zum Freunde machen
TTITLE15=Herr gehe nicht ins Gericht mit deinem Knecht -VI- Nun, ich weiss, du wirst mir stillen
EXTD=Chorus and Orchestra of Collegium Vocale, Ghent\nPhilippe Herreweghe\nBarbara Schlick soprano\nGerard Lesne alto\nHoward Crook tenor\nPeter Kooy bass YEAR: 199
EXTT0=
EXTT1=
EXTT2=
EXTT3=
EXTT4=
EXTT5=
EXTT6=
EXTT7=
EXTT8=
EXTT9=
EXTT10=
EXTT11=
EXTT12=
EXTT13=
EXTT14=
EXTT15=
PLAYORDER=
